<?xml version="1.0" standalone="no"?>
<!DOCTYPE svg PUBLIC "-//W3C//DTD SVG 20010904//EN"
 "http://www.w3.org/TR/2001/REC-SVG-20010904/DTD/svg10.dtd">
<svg version="1.0" xmlns="http://www.w3.org/2000/svg"
 width="574.000000pt" height="574.000000pt" viewBox="0 0 574.000000 574.000000"
 preserveAspectRatio="xMidYMid meet">
<metadata>
Created by potrace 1.11, written by Peter Selinger 2001-2013
</metadata>
<g transform="translate(0.000000,574.000000) scale(0.100000,-0.100000)"
fill="#000000" stroke="none">
<path d="M0 2870 l0 -2870 2870 0 2870 0 0 2870 0 2870 -2870 0 -2870 0 0
-2870z m1075 1328 c6 -20 162 -498 359 -1103 29 -88 88 -269 131 -402 44 -134
82 -243 85 -243 3 0 24 48 47 108 23 59 96 247 163 417 67 171 130 333 140
360 10 28 46 120 80 205 34 85 74 189 90 230 39 101 78 202 131 338 l44 112
45 0 45 0 64 -162 c35 -90 115 -292 177 -450 62 -157 129 -326 148 -375 31
-80 234 -595 290 -736 16 -41 25 -53 30 -42 3 9 6 401 6 871 0 675 3 856 13
859 23 8 352 25 602 32 279 6 400 -3 566 -43 224 -54 391 -138 552 -278 187
-163 312 -378 369 -636 20 -94 23 -130 23 -335 -1 -209 -3 -243 -28 -365 -59
-299 -173 -525 -357 -710 -179 -181 -372 -282 -655 -342 -107 -22 -124 -23
-620 -23 l-509 0 -28 70 c-15 39 -106 266 -203 505 -96 239 -246 612 -333 827
-86 216 -161 391 -166 390 -5 -2 -22 -37 -37 -78 -15 -41 -68 -182 -119 -314
-50 -132 -113 -298 -140 -370 -27 -71 -90 -238 -140 -370 -50 -132 -113 -298
-140 -370 -27 -71 -55 -146 -63 -165 -7 -19 -22 -56 -31 -83 l-18 -47 -62 0
-62 0 -16 48 c-9 26 -73 205 -143 397 -69 193 -159 442 -200 555 -40 113 -91
255 -113 315 -22 61 -85 236 -141 390 -55 154 -149 417 -210 585 -60 168 -121
335 -135 373 -14 37 -26 70 -26 72 0 3 110 5 244 5 l245 0 6 -22z"/>
<path d="M3715 3823 c-27 -2 -65 -5 -82 -8 l-33 -6 0 -959 c0 -649 3 -961 10
-965 21 -13 385 -18 478 -6 201 25 342 90 468 215 126 126 197 275 240 507 27
144 26 471 -2 599 -95 429 -394 636 -909 628 -66 -1 -142 -3 -170 -5z"/>
</g>
</svg>
